<svg width="20" height="20" viewBox="0 0 20 20" xmlns="http://www.w3.org/2000/svg">
    <path d="M19.174 6.106c-.527-1.233-1.235-2.295-2.122-3.186-.886-.891-1.946-1.6-3.18-2.128A9.741 9.741 0 0 0 10 0C8.65 0 7.36.264 6.125.792c-1.232.527-2.292 1.237-3.179 2.128S1.352 4.873.824 6.106a9.776 9.776 0 0 0-.791 3.887c0 1.358.263 2.656.791 3.893.528 1.237 1.235 2.301 2.122 3.192.887.891 1.947 1.601 3.18 2.128a9.74 9.74 0 0 0 3.873.792c1.35 0 2.641-.264 3.874-.792 1.233-.527 2.293-1.237 3.18-2.128.886-.891 1.594-1.955 2.121-3.192a9.82 9.82 0 0 0 .792-3.893 9.775 9.775 0 0 0-.792-3.887zm-15.08 7.767a6.98 6.98 0 0 1-1.154-3.88c0-1.28.315-2.466.947-3.556a7.01 7.01 0 0 1 2.57-2.583 6.9 6.9 0 0 1 3.542-.947c1.428 0 2.725.393 3.894 1.18l-9.799 9.786zm12.407-1.123a7.057 7.057 0 0 1-1.506 2.265 7.176 7.176 0 0 1-2.251 1.512 6.84 6.84 0 0 1-2.745.564 6.937 6.937 0 0 1-3.854-1.155l9.785-9.772a6.884 6.884 0 0 1 1.129 3.828c0 .961-.186 1.88-.558 2.758z" fill="#FF4242" fill-rule="nonzero"/>
</svg>
